<?xml version="1.0" encoding="UTF-8"?>
<svg xmlns="http://www.w3.org/2000/svg" viewBox="0 0 16 16" width="512" height="512" shape-rendering="crispEdges">
  <title>Cuttlefish Logo</title>
  <desc>A 16x16 pixel art cuttlefish mascot for the Cuttlefish coding platform</desc>
  
  <!-- Background -->
  <rect width="16" height="16" fill="#0a1628"/>
  
  <!-- Row 0: ...1222222221... -->
  <rect x="3" y="0" width="1" height="1" fill="#b86a35"/>
  <rect x="4" y="0" width="1" height="1" fill="#c87941"/>
  <rect x="5" y="0" width="1" height="1" fill="#c87941"/>
  <rect x="6" y="0" width="1" height="1" fill="#c87941"/>
  <rect x="7" y="0" width="1" height="1" fill="#c87941"/>
  <rect x="8" y="0" width="1" height="1" fill="#c87941"/>
  <rect x="9" y="0" width="1" height="1" fill="#c87941"/>
  <rect x="10" y="0" width="1" height="1" fill="#c87941"/>
  <rect x="11" y="0" width="1" height="1" fill="#c87941"/>
  <rect x="12" y="0" width="1" height="1" fill="#b86a35"/>
  
  <!-- Row 1: ..123444444321.. -->
  <rect x="2" y="1" width="1" height="1" fill="#b86a35"/>
  <rect x="3" y="1" width="1" height="1" fill="#c87941"/>
  <rect x="4" y="1" width="1" height="1" fill="#d4884e"/>
  <rect x="5" y="1" width="1" height="1" fill="#eaaa72"/>
  <rect x="6" y="1" width="1" height="1" fill="#eaaa72"/>
  <rect x="7" y="1" width="1" height="1" fill="#eaaa72"/>
  <rect x="8" y="1" width="1" height="1" fill="#eaaa72"/>
  <rect x="9" y="1" width="1" height="1" fill="#eaaa72"/>
  <rect x="10" y="1" width="1" height="1" fill="#eaaa72"/>
  <rect x="11" y="1" width="1" height="1" fill="#d4884e"/>
  <rect x="12" y="1" width="1" height="1" fill="#c87941"/>
  <rect x="13" y="1" width="1" height="1" fill="#b86a35"/>
  
  <!-- Row 2: ..12E444444E21.. (eyes) -->
  <rect x="2" y="2" width="1" height="1" fill="#b86a35"/>
  <rect x="3" y="2" width="1" height="1" fill="#c87941"/>
  <rect x="4" y="2" width="1" height="1" fill="#1a1a2e"/>
  <rect x="5" y="2" width="1" height="1" fill="#eaaa72"/>
  <rect x="6" y="2" width="1" height="1" fill="#eaaa72"/>
  <rect x="7" y="2" width="1" height="1" fill="#eaaa72"/>
  <rect x="8" y="2" width="1" height="1" fill="#eaaa72"/>
  <rect x="9" y="2" width="1" height="1" fill="#eaaa72"/>
  <rect x="10" y="2" width="1" height="1" fill="#eaaa72"/>
  <rect x="11" y="2" width="1" height="1" fill="#1a1a2e"/>
  <rect x="12" y="2" width="1" height="1" fill="#c87941"/>
  <rect x="13" y="2" width="1" height="1" fill="#b86a35"/>
  
  <!-- Row 3: ..12344HH44321.. (highlight) -->
  <rect x="2" y="3" width="1" height="1" fill="#b86a35"/>
  <rect x="3" y="3" width="1" height="1" fill="#c87941"/>
  <rect x="4" y="3" width="1" height="1" fill="#d4884e"/>
  <rect x="5" y="3" width="1" height="1" fill="#eaaa72"/>
  <rect x="6" y="3" width="1" height="1" fill="#eaaa72"/>
  <rect x="7" y="3" width="1" height="1" fill="#f5c38c"/>
  <rect x="8" y="3" width="1" height="1" fill="#f5c38c"/>
  <rect x="9" y="3" width="1" height="1" fill="#eaaa72"/>
  <rect x="10" y="3" width="1" height="1" fill="#eaaa72"/>
  <rect x="11" y="3" width="1" height="1" fill="#d4884e"/>
  <rect x="12" y="3" width="1" height="1" fill="#c87941"/>
  <rect x="13" y="3" width="1" height="1" fill="#b86a35"/>
  
  <!-- Row 4: .b12ss2222ss21b. (fins + stripe) -->
  <rect x="1" y="4" width="1" height="1" fill="#8c521e"/>
  <rect x="2" y="4" width="1" height="1" fill="#b86a35"/>
  <rect x="3" y="4" width="1" height="1" fill="#c87941"/>
  <rect x="4" y="4" width="1" height="1" fill="#a05014"/>
  <rect x="5" y="4" width="1" height="1" fill="#a05014"/>
  <rect x="6" y="4" width="1" height="1" fill="#c87941"/>
  <rect x="7" y="4" width="1" height="1" fill="#c87941"/>
  <rect x="8" y="4" width="1" height="1" fill="#c87941"/>
  <rect x="9" y="4" width="1" height="1" fill="#c87941"/>
  <rect x="10" y="4" width="1" height="1" fill="#a05014"/>
  <rect x="11" y="4" width="1" height="1" fill="#a05014"/>
  <rect x="12" y="4" width="1" height="1" fill="#c87941"/>
  <rect x="13" y="4" width="1" height="1" fill="#b86a35"/>
  <rect x="14" y="4" width="1" height="1" fill="#8c521e"/>
  
  <!-- Row 5: .ab2344444432ba. (fins) -->
  <rect x="1" y="5" width="1" height="1" fill="#643a16"/>
  <rect x="2" y="5" width="1" height="1" fill="#8c521e"/>
  <rect x="3" y="5" width="1" height="1" fill="#c87941"/>
  <rect x="4" y="5" width="1" height="1" fill="#d4884e"/>
  <rect x="5" y="5" width="1" height="1" fill="#eaaa72"/>
  <rect x="6" y="5" width="1" height="1" fill="#eaaa72"/>
  <rect x="7" y="5" width="1" height="1" fill="#eaaa72"/>
  <rect x="8" y="5" width="1" height="1" fill="#eaaa72"/>
  <rect x="9" y="5" width="1" height="1" fill="#eaaa72"/>
  <rect x="10" y="5" width="1" height="1" fill="#eaaa72"/>
  <rect x="11" y="5" width="1" height="1" fill="#d4884e"/>
  <rect x="12" y="5" width="1" height="1" fill="#c87941"/>
  <rect x="13" y="5" width="1" height="1" fill="#8c521e"/>
  <rect x="14" y="5" width="1" height="1" fill="#643a16"/>
  
  <!-- Row 6: ..123444444321.. -->
  <rect x="2" y="6" width="1" height="1" fill="#b86a35"/>
  <rect x="3" y="6" width="1" height="1" fill="#c87941"/>
  <rect x="4" y="6" width="1" height="1" fill="#d4884e"/>
  <rect x="5" y="6" width="1" height="1" fill="#eaaa72"/>
  <rect x="6" y="6" width="1" height="1" fill="#eaaa72"/>
  <rect x="7" y="6" width="1" height="1" fill="#eaaa72"/>
  <rect x="8" y="6" width="1" height="1" fill="#eaaa72"/>
  <rect x="9" y="6" width="1" height="1" fill="#eaaa72"/>
  <rect x="10" y="6" width="1" height="1" fill="#eaaa72"/>
  <rect x="11" y="6" width="1" height="1" fill="#d4884e"/>
  <rect x="12" y="6" width="1" height="1" fill="#c87941"/>
  <rect x="13" y="6" width="1" height="1" fill="#b86a35"/>
  
  <!-- Row 7: ...1233333321... (taper) -->
  <rect x="3" y="7" width="1" height="1" fill="#b86a35"/>
  <rect x="4" y="7" width="1" height="1" fill="#c87941"/>
  <rect x="5" y="7" width="1" height="1" fill="#d4884e"/>
  <rect x="6" y="7" width="1" height="1" fill="#d4884e"/>
  <rect x="7" y="7" width="1" height="1" fill="#d4884e"/>
  <rect x="8" y="7" width="1" height="1" fill="#d4884e"/>
  <rect x="9" y="7" width="1" height="1" fill="#d4884e"/>
  <rect x="10" y="7" width="1" height="1" fill="#d4884e"/>
  <rect x="11" y="7" width="1" height="1" fill="#c87941"/>
  <rect x="12" y="7" width="1" height="1" fill="#b86a35"/>
  
  <!-- Row 8: ................ (gap - all background) -->
  
  <!-- Row 9: ...t.t.tt.t.t... (tentacles) -->
  <rect x="3" y="9" width="1" height="1" fill="#b46428"/>
  <rect x="5" y="9" width="1" height="1" fill="#b46428"/>
  <rect x="7" y="9" width="1" height="1" fill="#b46428"/>
  <rect x="8" y="9" width="1" height="1" fill="#b46428"/>
  <rect x="10" y="9" width="1" height="1" fill="#b46428"/>
  <rect x="12" y="9" width="1" height="1" fill="#b46428"/>
  
  <!-- Row 10: ...t.t.tt.t.t... -->
  <rect x="3" y="10" width="1" height="1" fill="#b46428"/>
  <rect x="5" y="10" width="1" height="1" fill="#b46428"/>
  <rect x="7" y="10" width="1" height="1" fill="#b46428"/>
  <rect x="8" y="10" width="1" height="1" fill="#b46428"/>
  <rect x="10" y="10" width="1" height="1" fill="#b46428"/>
  <rect x="12" y="10" width="1" height="1" fill="#b46428"/>
  
  <!-- Row 11: ...u.u.tt.u.u... -->
  <rect x="3" y="11" width="1" height="1" fill="#8c4e1c"/>
  <rect x="5" y="11" width="1" height="1" fill="#8c4e1c"/>
  <rect x="7" y="11" width="1" height="1" fill="#b46428"/>
  <rect x="8" y="11" width="1" height="1" fill="#b46428"/>
  <rect x="10" y="11" width="1" height="1" fill="#8c4e1c"/>
  <rect x="12" y="11" width="1" height="1" fill="#8c4e1c"/>
  
  <!-- Row 12: .....u.uu.u..... -->
  <rect x="5" y="12" width="1" height="1" fill="#8c4e1c"/>
  <rect x="7" y="12" width="1" height="1" fill="#8c4e1c"/>
  <rect x="8" y="12" width="1" height="1" fill="#8c4e1c"/>
  <rect x="10" y="12" width="1" height="1" fill="#8c4e1c"/>
  
  <!-- Row 13: .....v.uu.v..... -->
  <rect x="5" y="13" width="1" height="1" fill="#5f320f"/>
  <rect x="7" y="13" width="1" height="1" fill="#8c4e1c"/>
  <rect x="8" y="13" width="1" height="1" fill="#8c4e1c"/>
  <rect x="10" y="13" width="1" height="1" fill="#5f320f"/>
  
  <!-- Row 14: .......vv....... -->
  <rect x="7" y="14" width="1" height="1" fill="#5f320f"/>
  <rect x="8" y="14" width="1" height="1" fill="#5f320f"/>
  
  <!-- Row 15: .......vv....... -->
  <rect x="7" y="15" width="1" height="1" fill="#5f320f"/>
  <rect x="8" y="15" width="1" height="1" fill="#5f320f"/>
</svg>
